<svg width="16" height="16" viewBox="0 0 16 16" fill="none" xmlns="http://www.w3.org/2000/svg">
<circle cx="8" cy="8" r="7.5" stroke="#F0C252"/>
<path d="M9.83643 6C9.78955 5.60417 9.59945 5.29688 9.26611 5.07812C8.93278 4.85937 8.52393 4.75 8.03955 4.75C7.68538 4.75 7.37549 4.80729 7.10986 4.92187C6.84684 5.03646 6.64111 5.19401 6.49268 5.39453C6.34684 5.59505 6.27393 5.82292 6.27393 6.07812C6.27393 6.29167 6.32471 6.47526 6.42627 6.62891C6.53044 6.77995 6.66325 6.90625 6.82471 7.00781C6.98617 7.10677 7.15544 7.1888 7.33252 7.25391C7.5096 7.31641 7.67236 7.36719 7.8208 7.40625L8.6333 7.625C8.84163 7.67969 9.07341 7.75521 9.32861 7.85156C9.58643 7.94792 9.83252 8.07943 10.0669 8.24609C10.3039 8.41016 10.4992 8.62109 10.6528 8.87891C10.8065 9.13672 10.8833 9.45312 10.8833 9.82812C10.8833 10.2604 10.77 10.651 10.5435 11C10.3195 11.349 9.99137 11.6263 9.55908 11.832C9.12939 12.0378 8.60726 12.1406 7.99268 12.1406C7.41976 12.1406 6.92367 12.0482 6.50439 11.8633C6.08773 11.6784 5.7596 11.4206 5.52002 11.0898C5.28304 10.7591 5.14893 10.375 5.11768 9.9375H6.11768C6.14372 10.2396 6.24528 10.4896 6.42236 10.6875C6.60205 10.8828 6.82861 11.0286 7.10205 11.125C7.37809 11.2187 7.67497 11.2656 7.99268 11.2656C8.36247 11.2656 8.6945 11.2057 8.98877 11.0859C9.28304 10.9635 9.51611 10.7943 9.68799 10.5781C9.85986 10.3594 9.9458 10.1042 9.9458 9.8125C9.9458 9.54687 9.87158 9.33073 9.72314 9.16406C9.57471 8.9974 9.37939 8.86198 9.13721 8.75781C8.89502 8.65365 8.6333 8.5625 8.35205 8.48437L7.36768 8.20312C6.74268 8.02344 6.24788 7.76693 5.8833 7.43359C5.51872 7.10026 5.33643 6.66406 5.33643 6.125C5.33643 5.67708 5.45752 5.28646 5.69971 4.95312C5.9445 4.61719 6.27262 4.35677 6.68408 4.17187C7.09814 3.98437 7.56038 3.89062 8.0708 3.89062C8.58643 3.89062 9.04476 3.98307 9.4458 4.16797C9.84684 4.35026 10.1646 4.60026 10.3989 4.91797C10.6359 5.23568 10.7609 5.59635 10.7739 6H9.83643Z" fill="#F0C252"/>
</svg>
